<?xml version="1.0" encoding="UTF-8"?><svg id="a" xmlns="http://www.w3.org/2000/svg" viewBox="0 0 1366 768"><g><path d="M662.58,138.51s-46.5-29.5-77.5,8.5c-8,9-41.5,74.15,38.75,107.07v36.93h120.26v-39s65.26-5.92,64.99-59c-.26-51.57-51-55-71-39-1-5-27.26-48.57-75.5-15.5Z"/><path d="M653.58,149.51s-30,11-18,52c.5-14.5,2.5-38.5,18-52Z" style="fill:#fff;"/><g><path d="M686.11,341.18c-1.45-3.47-5.28-5.06-8.74-5.73-5.29-1.02-10.89-.37-16.09,.82-5.23,1.2-10.55,2.84-15.24,5.49-5.66,3.2-10.41,8.25-16.67,10.31-5.07,1.67-10.51,2-15.8,1.44-5-1-14.5-6.5-14.5-6.5,0,0,13.12,30.48,47.06,24.74,5.01-.59,10.59-2.05,16.22-4.4,16.32-6.81,26.95-18.53,23.76-26.17Z"/><path d="M690.6,342.21c1.5-3.6,5.71-4.98,9.26-5.46,5.62-.76,11.46,.24,16.85,1.83,2.6,.77,5.11,1.74,7.6,2.8,2.5,1.06,4.97,2.24,7.2,3.8,2.38,1.67,4.47,3.74,6.97,5.26,2.64,1.61,5.78,2.47,8.82,2.92,1.69,.25,3.4,.37,5.11,.4,1.6,.02,3.19-.06,4.78-.23,4.59-.92,13.31-5.97,13.31-5.97,0,0-12.04,27.98-43.2,22.71-4.6-.54-9.72-1.88-14.89-4.04-14.98-6.25-24.74-17.01-21.81-24.02Z"/></g></g><g style="isolation:isolate;"><path d="M605.61,477.08v3.56h9.61c5.04,0,9.13,1.37,12.26,4.1,3.13,2.74,4.7,6.44,4.7,11.12s-1.57,8.39-4.7,11.12c-3.13,2.74-7.22,4.1-12.26,4.1h-39.53c-5.04,0-9.13-1.37-12.26-4.1-3.13-2.74-4.7-6.44-4.7-11.12s1.57-8.39,4.7-11.12c3.13-2.74,7.22-4.1,12.26-4.1h9.61v-3.56h-28.73v-12.96h77.65v12.96h-28.62Zm-47.95-29.16c6.77,0,11.99-.32,15.66-.97,3.67-.65,6.52-2.12,8.53-4.43h-23.11v-12.42h25.49v-4.32h22.46v4.32h25.49v12.42h-23.11c2.02,2.31,4.86,3.78,8.53,4.43,3.67,.65,8.89,.97,15.66,.97l-2.16,12.42c-7.99,0-14.96-.59-20.9-1.78s-10.85-3.15-14.74-5.89c-3.89,2.74-8.8,4.7-14.74,5.89s-12.91,1.78-20.9,1.78l-2.16-12.42Zm54.22,47.95c0-.58-.2-1.06-.59-1.46-.4-.4-.88-.59-1.46-.59h-28.73c-.58,0-1.06,.2-1.46,.59-.4,.4-.59,.88-.59,1.46s.2,1.06,.59,1.46c.4,.4,.88,.59,1.46,.59h28.73c.58,0,1.06-.2,1.46-.59,.39-.4,.59-.88,.59-1.46Z"/><path d="M693.09,457.1v14.58h-45.9v-41.47h20.2v26.89h25.7Zm29.92,54h-73.66v-33.8h73.66v33.8Zm-53.35-19.22v4.64h33.05v-4.64h-33.05Zm53.14-48.49h8.1v16.31h-8.1v13.61h-20.3v-44.28h20.3v14.36Z"/><path d="M757.57,446.3v44.28h14.04v16.2h-34.24v-76.68h32.18v16.2h-11.99Zm40.5-17.28h19.22v82.08h-19.22v-33.48h-3.35v32.4h-19.22v-81h19.22v32.4h3.35v-32.4Z"/><path d="M479.9,621.26h28.62v16.2h-77.76v-16.2h28.62v-10.8h20.52v10.8Zm-23.76-14.15c-4.82,0-9.07-.99-12.74-2.97-3.67-1.98-6.52-4.77-8.53-8.37-2.02-3.6-3.02-7.78-3.02-12.53s1.01-8.82,3.02-12.42c2.01-3.6,4.86-6.39,8.53-8.37,3.67-1.98,7.92-2.97,12.74-2.97h27c4.82,0,9.07,.99,12.74,2.97,3.67,1.98,6.52,4.77,8.53,8.37,2.01,3.6,3.02,7.74,3.02,12.42s-1.01,8.93-3.02,12.53c-2.02,3.6-4.86,6.39-8.53,8.37-3.67,1.98-7.92,2.97-12.74,2.97h-27Zm3.67-31.32c-2.31,0-4.16,.69-5.56,2.05-1.4,1.37-2.11,3.21-2.11,5.51s.7,4.14,2.11,5.51c1.4,1.37,3.26,2.05,5.56,2.05h19.66c2.3,0,4.16-.68,5.56-2.05,1.4-1.37,2.11-3.2,2.11-5.51s-.7-4.14-2.11-5.51c-1.4-1.37-3.26-2.05-5.56-2.05h-19.66Z"/><path d="M521.48,583.24h77.76v12.1h-77.76v-12.1Zm75.6-16.2v12.96h-73.44v-20.3h21.38v7.34h52.06Zm-54.22,58.54v3.24h55.3v11.88h-74.52v-27h53.24v-3.24h-53.24v-11.88h73.44v27h-54.22Z"/><path d="M680.02,615.75l-1.08,24.95h-19.22v-24.95h-15.12v-15.12h52.16v15.12h-16.74Zm-33.26-19.55h46.76v-36.5h-46.76v36.5Zm18.04-15.12v-6.37h10.69v6.37h-10.69Zm55.51-22.46h-20.3v61.45h-15.12v14.47h15.12v6.16h20.3v-82.08Z"/><path d="M765.67,559.48h46.87v47.63h-46.87v-47.63Zm55.51,81.22v-11.34h-53.35v-16.2l73.66-.11v27.65h-20.3Zm-27.86-49.79v-15.12h-8.42v15.12h8.42Zm48.17-32.29v50.65h-20.3v-17.5h-6.48v-16.2h6.48v-16.96h20.3Z"/><path d="M888.14,579.03c0,8.57,.72,15.93,2.16,22.09,1.44,6.16,3.42,10.87,5.94,14.15,2.52,3.28,5.4,5.09,8.64,5.45l-4.32,16.74c-3.89-.29-7.78-1.69-11.66-4.21-3.89-2.52-7.31-6.23-10.26-11.12-3.02,4.9-6.48,8.6-10.37,11.12-3.89,2.52-7.78,3.92-11.66,4.21l-4.32-16.74c5.76-.5,9.99-4.21,12.69-11.12,2.7-6.91,4.05-17.1,4.05-30.56v-3.13h-14.58v-16.2h48.17v16.2h-14.47v3.13Zm21.6-20.63h20.3v82.3h-20.3v-82.3Z"/><path d="M979.83,578.82c0,2.59-.16,4.93-.49,7.02-.32,2.09-.83,4.07-1.51,5.94-.68,1.87-1.58,3.73-2.7,5.56-1.12,1.84-2.43,3.8-3.94,5.89-1.94,2.59-3.39,4.81-4.32,6.64-.94,1.84-1.4,4.01-1.4,6.53h-17.28c0-2.45,.16-4.63,.49-6.53,.32-1.91,.79-3.69,1.4-5.35,.61-1.66,1.39-3.24,2.32-4.75,.93-1.51,1.98-3.1,3.13-4.75,1.08-1.51,1.98-2.88,2.7-4.1,.72-1.22,1.33-2.43,1.84-3.62,.5-1.19,.86-2.43,1.08-3.73s.32-2.74,.32-4.32v-.11c0-1.44-.76-2.16-2.27-2.16s-2.16,.72-2.16,2.16v5.83l-17.28,1.08-1.08-7.24c0-6.05,1.8-10.75,5.4-14.09,3.6-3.35,8.64-5.02,15.12-5.02s11.63,1.67,15.23,5.02c3.6,3.35,5.4,8.05,5.4,14.09Zm-22.79,42.66c2.88,0,5.27,.94,7.18,2.81,1.91,1.87,2.86,4.32,2.86,7.34s-.96,5.47-2.86,7.34c-1.91,1.87-4.3,2.81-7.18,2.81s-5.29-.97-7.24-2.92c-1.94-1.94-2.92-4.36-2.92-7.24,0-3.02,.97-5.47,2.92-7.34,1.94-1.87,4.36-2.81,7.24-2.81Z"/></g></svg>